<svg xmlns="http://www.w3.org/2000/svg" width="29.999" height="28.954" viewBox="0 0 29.999 28.954">
  <path id="Combined_Shape" data-name="Combined Shape" d="M20.871,28.954a.809.809,0,0,1-.739-1.141,3.024,3.024,0,0,1-2.374-2.968.339.339,0,0,0-.338-.338H9.3a.346.346,0,0,0-.239.1.333.333,0,0,0-.106.236,3.049,3.049,0,0,1-2.213,2.925.81.81,0,1,1-1.527.377.8.8,0,0,1,.069-.328A3.039,3.039,0,0,1,5.844,21.8H19.458a.336.336,0,0,0,.328-.259l.159-.675a.338.338,0,0,0-.329-.416H4.266a1.353,1.353,0,0,1-1.283-.923L.069,9.883A1.352,1.352,0,0,1,1.354,8.1H21.337a.336.336,0,0,0,.328-.259l1.481-6.282A2.012,2.012,0,0,1,25.116,0h3.531A1.353,1.353,0,0,1,30,1.35c0,.714-.581,1.814-1.353,1.814h-2.72a.337.337,0,0,0-.33.26l-3.145,18.61a.337.337,0,0,0,.135.351,3.037,3.037,0,0,1-.991,5.4.81.81,0,0,0-1.464.031l.037.008a3.077,3.077,0,0,0,.634.067,3.024,3.024,0,0,0,.793-.105.811.811,0,0,1-.725,1.172ZM6.026,27.334a.812.812,0,0,0-.741.482,2.978,2.978,0,0,0,.626.066h.023a3.054,3.054,0,0,0,.808-.114A.81.81,0,0,0,6.026,27.334ZM28.294,5.452a.579.579,0,1,1,.579-.579A.579.579,0,0,1,28.294,5.452Z" transform="translate(0 0)" fill="#090909"/>
</svg>
